<?xml version="1.0" standalone="no"?>
<!DOCTYPE svg PUBLIC "-//W3C//DTD SVG 20010904//EN"
 "http://www.w3.org/TR/2001/REC-SVG-20010904/DTD/svg10.dtd">
<svg version="1.0" xmlns="http://www.w3.org/2000/svg"
 width="614.000000pt" height="614.000000pt" viewBox="0 0 614.000000 614.000000"
 preserveAspectRatio="xMidYMid meet">
<metadata>
Created by potrace 1.14, written by Peter Selinger 2001-2017
</metadata>
<g transform="translate(0.000000,614.000000) scale(0.100000,-0.100000)"
fill="#000000" stroke="none">
<path d="M3005 6124 c-36 -37 -6 -81 156 -234 130 -122 189 -193 242 -291 70
-127 67 -89 67 -943 0 -514 4 -784 11 -809 8 -30 18 -42 44 -53 43 -18 59 -18
122 1 59 17 121 72 155 137 21 41 22 51 19 262 l-2 220 50 -76 c106 -158 232
-286 509 -516 89 -74 162 -138 162 -142 0 -5 -220 -127 -445 -245 -49 -26 -98
-55 -109 -64 -77 -68 -54 -201 44 -251 74 -38 160 -24 261 41 71 46 318 241
420 331 l67 59 78 -31 c44 -18 125 -52 181 -76 130 -57 238 -85 333 -87 65 -2
83 2 141 29 80 38 205 152 260 237 48 74 81 172 77 229 -3 41 -4 43 -35 42
-17 -1 -87 -29 -155 -63 -68 -33 -152 -67 -188 -76 -133 -31 -276 -12 -424 54
-152 69 -466 272 -656 424 -102 82 -256 234 -247 243 3 3 35 9 71 15 37 5 85
18 107 29 103 53 116 201 25 295 -70 73 -126 76 -366 15 -66 -17 -128 -30
-139 -30 -20 0 -20 7 -23 443 l-3 442 -32 68 c-82 172 -255 284 -555 357 -139
34 -199 38 -223 14z"/>
<path d="M2390 5924 c-112 -15 -156 -27 -181 -50 -34 -31 -24 -60 36 -104 68
-51 81 -75 89 -175 l7 -80 -169 -42 c-94 -22 -216 -59 -271 -82 -211 -84 -318
-184 -260 -242 19 -19 29 -21 98 -16 42 3 137 17 211 32 271 52 438 69 685 69
219 1 235 -1 336 -27 196 -50 279 -28 295 79 9 60 -25 170 -64 207 -43 42
-138 68 -267 73 -60 3 -129 7 -152 10 l-43 5 0 88 c0 134 -31 201 -112 239
-57 27 -123 31 -238 16z"/>
<path d="M2340 5021 c-166 -37 -273 -93 -366 -192 -102 -109 -146 -215 -147
-359 -2 -286 126 -464 383 -536 53 -15 100 -19 255 -18 216 1 290 14 425 81
102 49 217 163 262 259 32 66 33 74 33 189 -1 295 -123 484 -363 563 -107 35
-352 42 -482 13z m354 -326 c101 -18 163 -54 194 -115 100 -198 -148 -383
-468 -349 -189 19 -297 92 -308 209 -11 121 69 214 221 255 68 18 259 18 361
0z"/>
<path d="M1406 4408 c-51 -14 -121 -82 -134 -131 -13 -46 -3 -120 38 -287 16
-69 30 -132 30 -142 0 -17 -24 -18 -413 -18 -439 0 -475 -3 -569 -51 -137 -70
-251 -250 -318 -503 -55 -204 -51 -276 12 -276 28 0 51 19 183 153 159 163
223 216 323 266 124 62 101 61 948 61 488 0 782 4 799 10 16 6 32 24 41 47 29
68 -2 160 -74 225 -70 63 -66 63 -332 68 l-244 5 -27 228 c-30 249 -44 294
-105 329 -39 23 -108 30 -158 16z"/>
<path d="M2889 3785 c-144 -29 -270 -97 -360 -193 -67 -71 -104 -139 -144
-262 -24 -74 -29 -106 -33 -240 -5 -186 5 -238 75 -380 64 -132 153 -221 282
-284 135 -66 208 -79 399 -74 138 4 166 8 232 32 177 63 301 168 375 319 67
137 80 196 79 367 -1 162 -19 250 -73 363 -71 147 -221 274 -391 331 -75 26
-102 29 -230 32 -96 2 -167 -1 -211 -11z m336 -357 c162 -54 229 -156 229
-348 0 -163 -67 -299 -174 -352 -192 -95 -483 -24 -556 137 -82 179 -30 452
101 529 40 24 122 51 180 59 52 8 158 -4 220 -25z"/>
<path d="M6053 3134 c-18 -9 -83 -70 -145 -136 -128 -137 -214 -210 -308 -261
-128 -70 -90 -67 -944 -67 -514 0 -784 -4 -809 -11 -30 -8 -42 -18 -53 -44
-18 -43 -18 -59 1 -122 18 -59 73 -121 137 -155 41 -21 55 -22 278 -22 l234
-1 27 -226 c29 -248 44 -294 101 -329 76 -46 175 -32 243 34 73 70 76 126 15
366 -17 66 -30 128 -30 139 0 20 7 20 443 23 l442 3 68 32 c172 82 284 255
357 555 34 138 38 199 14 222 -19 20 -31 20 -71 0z"/>
<path d="M1948 3034 c-26 -8 -78 -35 -115 -61 -80 -55 -289 -220 -389 -310
-40 -35 -79 -63 -87 -63 -15 0 -141 49 -242 95 -149 67 -302 103 -395 92 -191
-23 -443 -319 -428 -502 3 -37 5 -40 32 -38 17 1 91 32 165 67 75 36 156 70
181 75 70 16 213 13 288 -6 86 -21 294 -127 447 -227 118 -77 385 -272 385
-280 0 -3 -9 -21 -21 -40 -45 -76 -33 -224 22 -270 41 -34 92 -40 202 -21 88
15 98 15 127 0 42 -22 117 -30 163 -17 l37 10 0 -129 0 -129 -32 -1 c-18 0
-123 -4 -234 -8 -182 -6 -204 -9 -236 -29 -46 -28 -68 -83 -68 -166 0 -102 28
-159 95 -193 41 -22 169 -12 320 26 66 16 128 33 138 36 16 7 17 -7 17 -212 0
-292 15 -352 120 -466 91 -100 238 -176 446 -230 193 -51 264 -47 264 15 0 28
-20 52 -158 187 -156 153 -213 224 -266 328 -57 113 -56 100 -56 939 0 488 -4
782 -10 799 -6 16 -24 32 -47 41 -68 29 -160 -2 -227 -76 -58 -64 -66 -93 -66
-229 l0 -119 -62 -4 -62 -3 -145 145 c-80 80 -217 203 -303 274 l-157 130 152
84 c84 46 201 109 261 139 169 85 196 111 196 193 0 73 -53 139 -128 160 -47
13 -66 12 -124 -6z"/>
<path d="M3505 2221 c-255 -42 -419 -151 -513 -341 -36 -73 -37 -76 -35 -185
5 -324 160 -528 443 -581 116 -22 342 -15 454 15 219 58 390 206 446 388 40
131 18 351 -47 462 -63 108 -173 188 -308 226 -68 19 -357 29 -440 16z m313
-327 c110 -24 175 -70 206 -146 46 -110 -22 -233 -159 -287 -113 -45 -393 -39
-505 10 -87 38 -122 90 -121 180 0 68 16 104 66 148 120 105 310 140 513 95z"/>
<path d="M4220 979 c-283 -55 -455 -73 -705 -73 -217 -1 -236 1 -342 27 -61
15 -130 27 -153 27 -51 0 -103 -21 -124 -51 -24 -35 -21 -131 7 -199 37 -91
115 -127 297 -136 58 -3 128 -7 155 -10 l50 -5 1 -97 c0 -104 16 -153 66 -199
56 -53 164 -68 313 -43 187 30 223 77 116 154 -71 50 -82 72 -88 169 l-6 83
84 18 c259 55 509 156 589 236 46 46 56 101 21 120 -32 16 -126 10 -281 -21z"/>
</g>
</svg>
