<svg viewBox="-50.879999999999995 -48 102.336 96" xmlns="http://www.w3.org/2000/svg" style="max-height: 500px" width="102.336" height="96"><path d="M-72-48v96H72v-96z" fill="#fff"/><g stroke-width="4" stroke="#000"><path d="M-50-12v24m6 0v-24m6 0v24m76 0V1m0-2v-11m6 0v11m0 2v11m6 0V1m0-2v-11" transform="rotate(33.69006752598)"/><path d="M-50-12v24m6 0V1m0-2v-11m6 0v24m76 0V1m0-2v-11m6 0v24m6 0V1m0-2v-11" transform="rotate(-33.69006752598)"/></g><g transform="rotate(33.69006752598)"><path d="M12 0a18 18 0 11-36 0 24 24 0 1148 0" fill="#cd2e3a"/><path d="M0 0a12 12 0 1124 0 24 24 0 11-48 0 12 12 0 1024 0" fill="#0047a0"/></g></svg>